# xmcd CD database file
# Copyright (C) 1995 Ti Kan
#
# Track frame offsets:
#	150
#	11341
#	24895
#	36270
#	48638
#	62949
#	78876
#	93973
#	111043
#	121733
#	131792
#	145103
#	157132
#	167462
#
# Disc length: 2440 seconds
#
# Revision: 1
# Processed by: cddbd v1.4b42PL1 Copyright (c) Steve Scherf et al.
# Submitted via: NotifyCDPlayer(CDDB) 1.60beta5_freedb
#
DISCID=ad09860e
DTITLE=Redd Volkaert - No Stranger to a Tele
DYEAR=1900
DGENRE=
TTITLE0=No Stranger to a Tele
TTITLE1=Diminishing Flames
TTITLE2=Before She Made Me Crawl
TTITLE3=Big Big Love
TTITLE4=Granny Grunt
TTITLE5=T'wango
TTITLE6=End of the Line
TTITLE7=I Forget You Everyday
TTITLE8=Drewpster
TTITLE9=Chee-Z
TTITLE10=Back to Back
TTITLE11=Conscience Turn Your Back
TTITLE12=Rubberdance
TTITLE13=3-1/2 Minutes Left
EXTD=
EXTT0=
EXTT1=
EXTT2=
EXTT3=
EXTT4=
EXTT5=
EXTT6=
EXTT7=
EXTT8=
EXTT9=
EXTT10=
EXTT11=
EXTT12=
EXTT13=
PLAYORDER=
